<svg xmlns="http://www.w3.org/2000/svg" viewBox="0 0 50.4 75.6"><defs><style>.cls-1{fill:#363a3e;}.cls-2{fill:#5ac8fa;}</style></defs><title>Location</title><g id="Layer_2" data-name="Layer 2"><g id="Layer_1-2" data-name="Layer 1"><path class="cls-1" d="M25.2,7.88A17.33,17.33,0,1,0,42.53,25.2,17.34,17.34,0,0,0,25.2,7.88Zm0,31.5A14.18,14.18,0,1,1,39.38,25.2,14.19,14.19,0,0,1,25.2,39.38Z"/><path class="cls-2" d="M26.78,24.55v-8.8a1.58,1.58,0,0,0-3.15,0V25.2a1.53,1.53,0,0,0,.46,1.11L28.81,31A1.58,1.58,0,0,0,31,31a1.59,1.59,0,0,0,0-2.23Z"/><path class="cls-1" d="M25.2,0A25.2,25.2,0,0,0,3,37.18L23.82,74.79a1.58,1.58,0,0,0,2.76,0l20.8-37.63A25.2,25.2,0,0,0,25.2,0ZM44.62,35.65,25.2,70.77,5.79,35.67a22.05,22.05,0,1,1,38.83,0Z"/></g></g></svg>