<svg xmlns="http://www.w3.org/2000/svg" viewBox="0 0 198.95 146.78"><defs><style>.cls-1{fill:#363a3e;}.cls-2{fill:#5ac8fa;}</style></defs><title>Dual User</title><g id="Layer_2" data-name="Layer 2"><g id="Layer_1-2" data-name="Layer 1"><path class="cls-1" d="M5.48,116.2A15,15,0,0,0,0,127.79v13.72a5.27,5.27,0,1,0,10.53,0V127.79a4.55,4.55,0,0,1,1.59-3.46,154.73,154.73,0,0,1,27.5-17.65,6.13,6.13,0,0,0,3.46-5.53V81.84a5.3,5.3,0,0,0-2.34-4.36A3.71,3.71,0,0,1,39,74.35v-20A12.77,12.77,0,0,1,51.8,41.53h4.3A12.77,12.77,0,0,1,68.87,54.3v20a3.73,3.73,0,0,1-1.7,3.13,5.16,5.16,0,0,0-2.34,4.36v9.68a5.27,5.27,0,1,0,10.53,0V84.29a14.32,14.32,0,0,0,4-9.94v-20A23.33,23.33,0,0,0,56.1,31H51.8A23.33,23.33,0,0,0,28.5,54.3v20a14.29,14.29,0,0,0,4,9.94v14.2A167.42,167.42,0,0,0,5.48,116.2Z"/><path class="cls-2" d="M193.68,146.78a5.25,5.25,0,0,0,5.27-5.27V123.75A17.68,17.68,0,0,0,192.46,110a208.66,208.66,0,0,0-35.63-23.19v-20A17,17,0,0,0,162,54.56V28.61A28.66,28.66,0,0,0,133.43,0h-5.59A28.66,28.66,0,0,0,99.23,28.61v26a17,17,0,0,0,5.22,12.23v20A208.24,208.24,0,0,0,68.81,110a17.7,17.7,0,0,0-6.48,13.77v17.76a5.27,5.27,0,1,0,10.53,0V123.75a7.23,7.23,0,0,1,2.66-5.64,201.12,201.12,0,0,1,35.89-23A6.32,6.32,0,0,0,115,89.34v-25A5.28,5.28,0,0,0,112.69,60a6.43,6.43,0,0,1-2.87-5.37v-26A18.09,18.09,0,0,1,127.9,10.58h5.58a18.1,18.1,0,0,1,18.08,18.08v26A6.51,6.51,0,0,1,148.69,60a5.13,5.13,0,0,0-2.34,4.36v25a6.47,6.47,0,0,0,3.62,5.8,200.19,200.19,0,0,1,35.9,23,7.22,7.22,0,0,1,2.65,5.63v17.77a5.08,5.08,0,0,0,5.16,5.21Z"/></g></g></svg>