<?xml version="1.0" encoding="utf-8"?>
<!-- Generator: Adobe Illustrator 16.0.0, SVG Export Plug-In . SVG Version: 6.00 Build 0)  -->
<!DOCTYPE svg PUBLIC "-//W3C//DTD SVG 1.1//EN" "http://www.w3.org/Graphics/SVG/1.1/DTD/svg11.dtd">
<svg version="1.1" id="Layer_1" xmlns="http://www.w3.org/2000/svg" xmlns:xlink="http://www.w3.org/1999/xlink" x="0px" y="0px"
	 width="352.14px" height="150.65px" viewBox="0 0 352.14 150.65" enable-background="new 0 0 352.14 150.65" xml:space="preserve">
<g>
	<path fill="#FFFFFF" d="M129.031,44.854c-10.59-10.564-25.169-17.133-41.339-17.133c-0.279,0-0.545,0.041-0.822,0.041
		c-9.037-0.176-17.424,1.922-24.875,5.736c-5.791,2.76-11.189,6.48-15.869,11.068l0.287,0.287c-0.01,0.012-0.021,0.018-0.031,0.029
		l9.93,9.961h0.029c8.041-8.045,19.111-13.02,31.352-13.02c12.27,0,23.369,4.975,31.378,13.02L129.031,44.854z"/>
	<path fill="#FFFFFF" d="M26.731,25.23l9.182,9.211h0.029c13.26-13.26,31.529-21.48,51.75-21.48c20.25,0,38.55,8.221,51.779,21.48
		l9.18-9.211c-15.6-15.568-37.169-25.229-60.958-25.229C63.901,0.002,42.331,9.662,26.731,25.23z"/>
	<path fill="#FFFFFF" d="M133.215,121.848c2.91-3.75,5.34-7.832,7.199-12.152c0.182-0.328,0.33-0.691,0.48-1.047
		c0.059-0.152,0.15-0.301,0.211-0.453c0.24-0.598,0.51-1.199,0.719-1.828c2.49-6.449,3.961-13.324,4.199-20.313
		c0.031-0.57-0.029-1.109-0.119-1.617c-0.209-3.539-0.75-6.93-1.5-10.229c-0.059-0.305-0.09-0.604-0.15-0.902
		c-0.09-0.299-0.18-0.633-0.24-0.932c-1.35-5.906-3.6-11.426-6.6-16.441c0-0.059-0.029-0.088-0.09-0.146l-10.199,10.201
		c0.029,0.029,0.059,0.088,0.09,0.146c2.91,5.912,4.529,12.631,4.529,19.803c0,5.43-0.898,10.469-2.52,15.027
		c-6.51,18.453-24.599,29.34-41.58,29.34c-13.77,0-24.811-5.457-32.461-13.59c-0.568-0.598-1.139-1.23-1.648-1.855
		c-0.121-0.152-0.211-0.27-0.332-0.422c-3.119-3.961-5.607-8.434-7.348-13.203c-1.021-2.637-1.771-5.395-2.281-8.191
		c-0.359-2.277-0.6-4.559-0.6-6.836c0-7.77,1.74-14.641,4.74-20.553c0-0.059,0.029-0.117,0.059-0.176L37.606,55.307
		c-0.031,0.029-0.061,0.088-0.092,0.152c-5.189,8.549-8.311,18.955-8.311,30.9c0,2.336,0.182,4.645,0.422,6.895
		c0.539,5.105,1.77,9.934,3.629,14.461c0.33,0.84,0.691,1.684,1.08,2.492c7.801,17.371,23.971,29.941,43.83,33.059
		c3.121,0.602,6.33,0.988,9.539,1.113c12.271,0.414,23.402-3.363,32.582-9.902l16.168,16.172l9.723-9.723l-15.691-15.691
		C131.445,124.129,132.346,123.016,133.215,121.848z"/>
	<rect x="-0.001" y="30.639" fill="#FFFFFF" width="13.777" height="110.846"/>
	<path fill="#FFFFFF" d="M201.773,103.035c17.16,0,31.66-16.477,31.66-35.986c0-17.895-13.621-36.41-36.41-36.41h-35.117v110.846
		h13.777V97.191l48.125,48.125l9.711-9.711l-32.453-32.582C201.303,103.027,201.539,103.035,201.773,103.035z M175.684,90.555
		V44.414h21.34c14.164,0,22.631,11.508,22.631,22.635c0,14.717-11.361,23.506-22.346,23.506H175.684z"/>
	<path fill="#FFFFFF" d="M300.777,23.221l-51.691,110.521l10.383,10.379l18.568-39.781h45.299l18.393,39.453l10.412-10.383v-0.031
		L300.777,23.221z M284.43,90.543l16.201-34.832l16.318,34.832H284.43z"/>
	<path fill="#FFFFFF" d="M56.692,86.059c0,17.063,13.828,30.891,30.887,30.891s30.886-13.828,30.886-30.891
		c0-17.053-13.828-30.887-30.886-30.887S56.692,69.006,56.692,86.059z M105.024,85.52c0,9.641-7.809,17.449-17.445,17.449
		S70.133,95.16,70.133,85.52c0-9.629,7.809-17.445,17.445-17.445S105.024,75.891,105.024,85.52z"/>
</g>
</svg>
